<svg width="1920" height="1117" viewBox="0 0 1920 1117" fill="none" xmlns="http://www.w3.org/2000/svg">
<path opacity="0.0144928" d="M1707.23 1593.65C1716.29 1598.45 1727.43 1596.69 1734.55 1589.32L1960.89 1355.24C1965.1 1350.88 1967.42 1345.04 1967.35 1338.97L1961.73 872.909C1961.67 868.142 1960.14 863.511 1957.33 859.655L1717.19 529.549C1712.1 522.559 1703.53 519.01 1694.99 520.363L1414.54 564.782C1406 566.134 1398.94 572.159 1396.27 580.378L1269.88 968.537C1268.41 973.07 1268.37 977.949 1269.79 982.501L1408.47 1427.49C1410.28 1433.28 1414.29 1438.12 1419.65 1440.96L1707.23 1593.65Z" stroke="url(#paint0_linear_1_21)" stroke-width="4"/>
<path opacity="0.0289855" d="M1656.08 1592.16C1664.86 1597.4 1676.04 1596.23 1683.53 1589.27L1920.45 1369.33C1924.9 1365.2 1927.53 1359.47 1927.78 1353.41L1946.61 891.976C1946.8 887.198 1945.5 882.478 1942.89 878.473L1721.81 539.496C1717.09 532.265 1708.73 528.284 1700.14 529.186L1419.43 558.69C1410.84 559.593 1403.49 565.227 1400.38 573.28L1254.6 950.815C1252.88 955.276 1252.59 960.162 1253.78 964.795L1368.13 1412.23C1369.63 1418.11 1373.4 1423.16 1378.61 1426.27L1656.08 1592.16Z" stroke="url(#paint1_linear_1_21)" stroke-width="4"/>
<path opacity="0.0434783" d="M1605.32 1589.12C1613.8 1594.79 1624.99 1594.2 1632.83 1587.67L1879.47 1382.33C1884.14 1378.43 1887.09 1372.85 1887.65 1366.8L1930.43 911.271C1930.88 906.496 1929.82 901.7 1927.41 897.554L1725.66 550.788C1721.32 543.336 1713.19 538.934 1704.58 539.386L1424.39 554.07C1415.78 554.521 1408.15 559.749 1404.61 567.613L1240.21 933.569C1238.25 937.944 1237.7 942.824 1238.65 947.526L1328.8 1396.09C1330 1402.05 1333.51 1407.29 1338.56 1410.67L1605.32 1589.12Z" stroke="url(#paint2_linear_1_21)" stroke-width="4"/>
<path opacity="0.057971" d="M1555.04 1584.56C1563.19 1590.64 1574.37 1590.64 1582.52 1584.56L1838.02 1394.22C1842.9 1390.58 1846.15 1385.15 1847.03 1379.13L1913.19 930.737C1913.89 925.977 1913.09 921.117 1910.88 916.841L1728.67 563.37C1724.72 555.717 1716.83 550.909 1708.22 550.909L1429.34 550.909C1420.73 550.909 1412.84 555.717 1408.9 563.37L1226.68 916.841C1224.48 921.117 1223.67 925.977 1224.37 930.737L1290.53 1379.13C1291.42 1385.15 1294.66 1390.58 1299.54 1394.22L1555.04 1584.56Z" stroke="url(#paint3_linear_1_21)" stroke-width="4"/>
<path opacity="0.0724638" d="M1505.31 1578.53C1513.13 1585 1524.25 1585.58 1532.7 1579.97L1796.16 1404.99C1801.24 1401.62 1804.77 1396.36 1805.98 1390.39L1894.89 950.313C1895.84 945.582 1895.29 940.671 1893.3 936.274L1730.77 577.184C1727.22 569.351 1719.6 564.149 1711.02 563.699L1434.2 549.192C1425.62 548.742 1417.5 553.119 1413.15 560.538L1213.97 900.672C1211.54 904.837 1210.47 909.663 1210.92 914.468L1253.35 1361.42C1253.92 1367.49 1256.89 1373.09 1261.58 1376.97L1505.31 1578.53Z" stroke="url(#paint4_linear_1_21)" stroke-width="4"/>
<path opacity="0.0869565" d="M1432.22 1571.08C1439.67 1577.91 1450.71 1579.07 1459.43 1573.94L1729.95 1414.63C1735.22 1411.53 1739.03 1406.47 1740.55 1400.55L1851.53 969.941C1852.73 965.253 1852.43 960.303 1850.66 955.796L1707.9 592.169C1704.76 584.176 1697.43 578.597 1688.89 577.7L1414.9 548.901C1406.36 548.004 1398.03 551.937 1393.3 559.103L1178.05 885.102C1175.39 889.143 1174.06 893.922 1174.27 898.759L1193.29 1343.03C1193.55 1349.13 1196.22 1354.88 1200.73 1359.01L1432.22 1571.08Z" stroke="url(#paint5_linear_1_21)" stroke-width="4"/>
<path opacity="0.101449" d="M1383.83 1562.24C1390.91 1569.42 1401.83 1571.15 1410.78 1566.51L1687.46 1423.13C1692.89 1420.32 1696.98 1415.45 1698.81 1409.62L1831.1 989.564C1832.56 984.931 1832.52 979.955 1830.97 975.35L1708.01 608.26C1705.29 600.13 1698.27 594.19 1689.8 592.848L1419.35 550.013C1410.88 548.672 1402.37 552.152 1397.26 559.043L1166.88 870.168C1163.99 874.071 1162.41 878.79 1162.37 883.647L1158.38 1324.02C1158.32 1330.14 1160.71 1336.03 1165 1340.38L1383.83 1562.24Z" stroke="url(#paint6_linear_1_21)" stroke-width="4"/>
<path opacity="0.115942" d="M1336.21 1552.08C1342.89 1559.59 1353.68 1561.88 1362.84 1557.74L1644.74 1430.48C1650.33 1427.96 1654.67 1423.32 1656.82 1417.58L1809.63 1009.12C1811.34 1004.56 1811.55 999.57 1810.24 994.877L1707.04 625.391C1704.74 617.145 1698.05 610.86 1689.67 609.08L1423.48 552.5C1415.11 550.72 1406.44 553.738 1400.98 560.335L1156.42 855.903C1153.32 859.658 1151.48 864.302 1151.18 869.166L1124.65 1304.46C1124.28 1310.58 1126.36 1316.59 1130.44 1321.17L1336.21 1552.08Z" stroke="url(#paint7_linear_1_21)" stroke-width="4"/>
<path opacity="0.130435" d="M1289.42 1540.65C1295.7 1548.46 1306.32 1551.3 1315.66 1547.68L1601.87 1436.7C1607.59 1434.48 1612.19 1430.06 1614.64 1424.44L1787.12 1028.56C1789.07 1024.08 1789.55 1019.09 1788.47 1014.32L1704.96 643.492C1703.08 635.152 1696.73 628.542 1688.47 626.329L1427.23 556.33C1418.97 554.118 1410.17 556.668 1404.37 562.951L1146.63 842.341C1143.32 845.935 1141.23 850.491 1140.68 855.35L1092.12 1284.43C1091.43 1290.53 1093.2 1296.65 1097.05 1301.43L1289.42 1540.65Z" stroke="url(#paint8_linear_1_21)" stroke-width="4"/>
<path opacity="0.144928" d="M1219.54 1528C1225.4 1536.09 1235.81 1539.47 1245.31 1536.37L1534.89 1441.76C1540.74 1439.85 1545.57 1435.69 1548.32 1430.19L1739.58 1047.82C1741.78 1043.44 1742.51 1038.46 1741.68 1033.63L1677.7 662.493C1676.25 654.081 1670.26 647.164 1662.14 644.526L1406.52 561.471C1398.41 558.833 1389.49 560.908 1383.38 566.862L1113.47 829.511C1109.96 832.933 1107.63 837.389 1106.82 842.228L1036.81 1263.99C1035.8 1270.05 1037.26 1276.27 1040.87 1281.24L1219.54 1528Z" stroke="url(#paint9_linear_1_21)" stroke-width="4"/>
<path opacity="0.15942" d="M1174.61 1514.2C1180.04 1522.55 1190.22 1526.46 1199.84 1523.88L1491.89 1445.69C1497.83 1444.1 1502.89 1440.19 1505.93 1434.84L1715.03 1066.86C1717.47 1062.58 1718.46 1057.63 1717.87 1052.74L1673.24 682.32C1672.22 673.858 1666.6 666.653 1658.65 663.599L1409.3 567.882C1401.34 564.828 1392.34 566.424 1385.92 572.03L1104.89 817.441C1101.19 820.679 1098.62 825.021 1097.56 829.829L1006.72 1243.21C1005.4 1249.22 1006.54 1255.51 1009.9 1260.68L1174.61 1514.2Z" stroke="url(#paint10_linear_1_21)" stroke-width="4"/>
<path opacity="0.173913" d="M1130.69 1499.31C1135.68 1507.9 1145.61 1512.32 1155.32 1510.27L1448.9 1448.5C1454.94 1447.23 1460.21 1443.59 1463.53 1438.4L1689.5 1085.6C1692.16 1081.44 1693.42 1076.54 1693.07 1071.61L1667.53 702.898C1666.95 694.408 1661.72 686.937 1653.94 683.475L1411.48 575.524C1403.71 572.062 1394.66 573.176 1387.95 578.42L1096.86 806.155C1092.97 809.199 1090.16 813.415 1088.85 818.178L977.875 1222.17C976.241 1228.11 977.064 1234.47 980.158 1239.8L1130.69 1499.31Z" stroke="url(#paint11_linear_1_21)" stroke-width="4"/>
<path opacity="0.188406" d="M1087.84 1483.4C1092.36 1492.2 1102.02 1497.12 1111.8 1495.61L1406 1450.19C1412.11 1449.24 1417.58 1445.89 1421.18 1440.87L1662.99 1104.01C1665.88 1099.98 1667.4 1095.13 1667.3 1090.18L1660.56 724.15C1660.4 715.655 1655.57 707.938 1648 704.081L1413.02 584.35C1405.45 580.493 1396.37 581.123 1389.4 585.99L1089.32 795.677C1085.25 798.516 1082.22 802.592 1080.66 807.298L950.271 1200.93C948.328 1206.79 948.826 1213.19 951.652 1218.68L1087.84 1483.4Z" stroke="url(#paint12_linear_1_21)" stroke-width="4"/>
<path opacity="0.202899" d="M1046.09 1466.54C1050.15 1475.52 1059.5 1480.92 1069.32 1479.95L1363.25 1450.78C1369.4 1450.17 1375.05 1447.1 1378.92 1442.27L1635.55 1122.03C1638.66 1118.15 1640.43 1113.37 1640.59 1108.39L1652.29 746C1652.56 737.522 1648.14 729.581 1640.8 725.34L1413.86 594.315C1406.51 590.073 1397.42 590.22 1390.22 594.696L1082.23 786.024C1078 788.65 1074.74 792.574 1072.93 797.209L923.911 1179.57C921.664 1185.34 921.835 1191.76 924.384 1197.4L1046.09 1466.54Z" stroke="url(#paint13_linear_1_21)" stroke-width="4"/>
<path opacity="0.217391" d="M981.486 1448.79C985.081 1457.95 994.097 1463.8 1003.92 1463.36L1296.69 1450.29C1302.88 1450.01 1308.7 1447.25 1312.82 1442.62L1583.19 1139.62C1586.51 1135.9 1588.53 1131.19 1588.94 1126.21L1618.69 768.37C1619.39 759.93 1615.4 751.788 1608.3 747.175L1389.93 605.366C1382.83 600.754 1373.77 600.418 1366.34 604.492L1051.54 777.216C1047.16 779.618 1043.68 783.379 1041.63 787.931L874.791 1158.16C872.245 1163.81 872.087 1170.25 874.352 1176.02L981.486 1448.79Z" stroke="url(#paint14_linear_1_21)" stroke-width="4"/>
<path opacity="0.231884" d="M942.07 1430.24C945.189 1439.53 953.852 1445.83 963.652 1445.92L1254.39 1448.73C1260.59 1448.79 1266.56 1446.34 1270.94 1441.94L1553.94 1156.72C1557.47 1153.17 1559.74 1148.55 1560.41 1143.59L1607.77 791.181C1608.89 782.801 1605.33 774.48 1598.49 769.51L1389.2 617.453C1382.36 612.483 1373.35 611.667 1365.72 615.327L1045.2 769.266C1040.68 771.435 1037 775.021 1034.7 779.477L850.905 1136.77C848.065 1142.29 847.578 1148.72 849.553 1154.61L942.07 1430.24Z" stroke="url(#paint15_linear_1_21)" stroke-width="4"/>
<path opacity="0.246377" d="M903.872 1410.96C906.509 1420.36 914.799 1427.07 924.546 1427.7L1212.39 1446.15C1218.6 1446.55 1224.7 1444.41 1229.31 1440.24L1523.84 1173.3C1527.57 1169.92 1530.09 1165.42 1531.01 1160.47L1595.49 814.353C1597.04 806.055 1593.91 797.577 1587.35 792.266L1387.61 630.519C1381.05 625.207 1372.11 623.915 1364.32 627.152L1039.17 762.185C1034.52 764.115 1030.64 767.514 1028.11 771.862L828.241 1115.46C825.114 1120.83 824.297 1127.25 825.977 1133.24L903.872 1410.96Z" stroke="url(#paint16_linear_1_21)" stroke-width="4"/>
<path opacity="0.26087" d="M866.919 1391.01C869.072 1400.5 876.967 1407.61 886.632 1408.76L1170.76 1442.55C1176.94 1443.29 1183.16 1441.49 1188 1437.55L1492.93 1189.3C1496.85 1186.12 1499.6 1181.73 1500.78 1176.82L1581.86 837.807C1583.82 829.613 1581.14 821.003 1574.88 815.365L1385.12 644.507C1378.86 638.869 1370.02 637.106 1362.07 639.912L1033.39 755.984C1028.63 757.666 1024.56 760.867 1021.8 765.095L806.784 1094.31C803.377 1099.52 802.232 1105.9 803.61 1111.97L866.919 1391.01Z" stroke="url(#paint17_linear_1_21)" stroke-width="4"/>
<path opacity="0.275362" d="M831.235 1370.48C832.902 1380.04 840.384 1387.52 849.938 1389.19L1129.53 1437.98C1135.68 1439.05 1142 1437.58 1147.04 1433.9L1461.24 1204.7C1465.33 1201.71 1468.32 1197.45 1469.75 1192.59L1566.87 861.466C1569.24 853.395 1567.01 844.676 1561.06 838.729L1381.69 659.357C1375.74 653.41 1367.02 651.184 1358.95 653.551L1027.83 750.669C1022.97 752.095 1018.71 755.089 1015.72 759.184L786.515 1073.38C782.837 1078.42 781.366 1084.74 782.439 1090.89L831.235 1370.48Z" stroke="url(#paint18_linear_1_21)" stroke-width="4"/>
<path opacity="0.289855" d="M796.839 1349.45C798.02 1359.04 805.07 1366.87 814.486 1369.05L1088.77 1432.46C1094.86 1433.87 1101.26 1432.74 1106.5 1429.33L1428.8 1219.44C1433.07 1216.66 1436.29 1212.55 1437.97 1207.74L1550.52 885.25C1553.29 877.324 1551.52 868.52 1545.9 862.281L1377.28 675.01C1371.66 668.772 1363.09 666.089 1354.92 668.012L1022.43 746.243C1017.47 747.408 1013.05 750.184 1009.84 754.134L767.413 1052.73C763.472 1057.59 761.677 1063.83 762.441 1070.04L796.839 1349.45Z" stroke="url(#paint19_linear_1_21)" stroke-width="4"/>
<path opacity="0.304348" d="M763.746 1327.98C764.441 1337.59 771.044 1345.74 780.293 1348.42L1048.5 1426.03C1054.52 1427.77 1060.99 1426.98 1066.41 1423.85L1395.67 1233.49C1400.09 1230.94 1403.54 1226.98 1405.46 1222.25L1532.83 909.082C1535.98 901.32 1534.67 892.455 1529.4 885.943L1371.86 691.403C1366.59 684.891 1358.19 681.762 1349.94 683.236L1017.14 742.708C1012.11 743.606 1007.52 746.154 1004.1 749.949L749.451 1032.44C745.258 1037.09 743.143 1043.25 743.595 1049.5L763.746 1327.98Z" stroke="url(#paint20_linear_1_21)" stroke-width="4"/>
<path opacity="0.318841" d="M707.966 1306.17C708.177 1315.76 714.318 1324.21 723.374 1327.37L984.788 1418.72C990.712 1420.79 997.223 1420.35 1002.81 1417.5L1337.88 1246.83C1342.45 1244.5 1346.11 1240.71 1348.28 1236.06L1489.79 932.886C1493.33 925.307 1492.47 916.405 1487.56 909.639L1341.4 708.473C1336.48 701.706 1328.28 698.142 1319.98 699.164L987.913 740.062C982.822 740.689 978.086 743 974.459 746.628L708.601 1012.55C704.164 1016.99 701.734 1023.05 701.872 1029.32L707.966 1306.17Z" stroke="url(#paint21_linear_1_21)" stroke-width="4"/>
<path opacity="0.333333" d="M677.505 1284.07C677.235 1293.63 682.901 1302.35 691.736 1305.99L945.659 1410.57C951.471 1412.97 958.01 1412.88 963.755 1410.33L1303.47 1259.41C1308.18 1257.32 1312.05 1253.71 1314.46 1249.16L1469.43 956.585C1473.34 949.208 1472.94 940.294 1468.39 933.293L1333.87 726.154C1329.33 719.153 1321.35 715.165 1313.02 715.734L982.705 738.302C977.566 738.653 972.694 740.719 968.869 744.169L692.829 993.136C688.161 997.346 685.42 1003.28 685.243 1009.57L677.505 1284.07Z" stroke="url(#paint22_linear_1_21)" stroke-width="4"/>
<path opacity="0.347826" d="M648.363 1261.78C647.618 1271.27 652.795 1280.24 661.386 1284.34L907.155 1401.63C912.839 1404.34 919.386 1404.6 925.27 1402.36L1268.5 1271.22C1273.33 1269.37 1277.4 1265.95 1280.05 1261.51L1447.76 980.107C1452.02 972.95 1452.09 964.047 1447.92 956.832L1325.26 744.381C1321.1 737.166 1313.36 732.768 1305.02 732.883L977.468 737.421C972.296 737.492 967.299 739.305 963.284 742.567L678.101 974.248C673.213 978.219 670.167 984.021 669.674 990.299L648.363 1261.78Z" stroke="url(#paint23_linear_1_21)" stroke-width="4"/>
<path opacity="0.362319" d="M620.536 1239.37C619.322 1248.77 624.002 1257.96 632.323 1262.5L869.312 1391.93C874.85 1394.95 881.387 1395.57 887.393 1393.63L1233.01 1282.22C1237.96 1280.63 1242.21 1277.41 1245.1 1273.08L1424.81 1003.38C1429.42 996.459 1429.93 987.591 1426.16 980.183L1315.54 763.089C1311.77 755.681 1304.29 750.887 1295.98 750.55L972.155 737.41C966.965 737.199 961.856 738.752 957.661 741.815L664.378 955.941C659.281 959.661 655.938 965.312 655.129 971.57L620.536 1239.37Z" stroke="url(#paint24_linear_1_21)" stroke-width="4"/>
<path opacity="0.376812" d="M594.019 1216.91C592.342 1226.2 596.515 1235.58 604.543 1240.55L832.164 1381.51C837.538 1384.84 844.046 1385.81 850.158 1384.2L1197.05 1292.39C1202.09 1291.06 1206.53 1288.05 1209.64 1283.86L1400.6 1026.33C1405.54 1019.67 1406.51 1010.86 1403.13 1003.28L1304.71 782.211C1301.33 774.632 1294.14 769.457 1285.88 768.67L966.722 738.258C961.528 737.763 956.32 739.049 951.954 741.904L651.617 938.267C646.326 941.727 642.692 947.211 641.569 953.433L594.019 1216.91Z" stroke="url(#paint25_linear_1_21)" stroke-width="4"/>
<path opacity="0.391304" d="M568.798 1194.48C566.667 1203.64 570.327 1213.17 578.04 1218.55L795.74 1370.43C800.935 1374.06 807.394 1375.38 813.595 1374.09L1160.66 1301.72C1165.79 1300.65 1170.4 1297.86 1173.73 1293.81L1375.16 1048.89C1380.42 1042.5 1381.84 1033.77 1378.87 1026.04L1292.75 801.682C1289.78 793.953 1282.89 788.414 1274.7 787.181L961.123 739.952C955.941 739.172 950.648 740.184 946.121 742.822L639.777 921.276C634.304 924.464 630.388 929.768 628.952 935.937L568.798 1194.48Z" stroke="url(#paint26_linear_1_21)" stroke-width="4"/>
<path opacity="0.405797" d="M544.859 1172.14C542.283 1181.15 545.424 1190.81 552.8 1196.58L760.068 1358.73C765.067 1362.64 771.459 1364.31 777.732 1363.35L1123.9 1310.18C1129.1 1309.38 1133.88 1306.82 1137.42 1302.93L1348.53 1071C1354.09 1064.89 1355.95 1056.27 1353.4 1048.41L1279.65 821.435C1277.1 813.578 1270.53 807.693 1262.43 806.019L955.316 742.476C950.162 741.409 944.797 742.143 940.119 744.555L628.809 905.013C623.168 907.921 618.979 913.03 617.234 919.132L544.859 1172.14Z" stroke="url(#paint27_linear_1_21)" stroke-width="4"/>
<path opacity="0.42029" d="M522.18 1149.98C519.171 1158.8 521.789 1168.57 528.808 1174.71L725.174 1346.46C729.96 1350.64 736.266 1352.66 742.594 1352.03L1086.82 1317.76C1092.08 1317.24 1097 1314.92 1100.75 1311.19L1320.75 1092.59C1326.6 1086.78 1328.89 1078.29 1326.76 1070.33L1265.42 841.404C1263.28 833.442 1257.05 827.23 1249.08 825.122L949.259 745.811C944.147 744.459 938.725 744.909 933.907 747.086L618.666 889.522C612.871 892.141 608.419 897.041 606.366 903.06L522.18 1149.98Z" stroke="url(#paint28_linear_1_21)" stroke-width="4"/>
<path opacity="0.434783" d="M500.739 1128.05C497.308 1136.68 499.4 1146.52 506.044 1153.01L691.078 1333.65C695.637 1338.1 701.839 1340.46 708.203 1340.17L1049.46 1324.45C1054.77 1324.21 1059.83 1322.13 1063.78 1318.58L1291.86 1113.61C1297.97 1108.11 1300.69 1099.76 1298.98 1091.72L1250.05 861.525C1248.34 853.48 1242.46 846.96 1234.64 844.426L942.91 749.937C937.857 748.3 932.392 748.463 927.445 750.399L609.295 874.844C603.362 877.165 598.657 881.843 596.302 887.764L500.739 1128.05Z" stroke="url(#paint29_linear_1_21)" stroke-width="4"/>
<path opacity="0.449275" d="M480.507 1106.43C476.667 1114.84 478.233 1124.73 484.484 1131.54L657.8 1320.37C662.117 1325.07 668.195 1327.77 674.579 1327.82L1011.89 1330.24C1017.23 1330.28 1022.41 1328.46 1026.55 1325.1L1261.89 1133.99C1268.26 1128.81 1271.39 1120.64 1270.11 1112.53L1233.55 881.732C1232.27 873.627 1226.77 866.821 1219.11 863.869L936.231 754.833C931.251 752.914 925.759 752.786 920.695 754.471L600.645 861.015C594.588 863.031 589.641 867.475 586.989 873.282L480.507 1106.43Z" stroke="url(#paint30_linear_1_21)" stroke-width="4"/>
<path opacity="0.463768" d="M461.454 1085.18C457.219 1093.35 458.26 1103.26 464.101 1110.37L625.357 1306.66C629.417 1311.6 635.354 1314.63 641.739 1315.02L974.143 1335.13C979.496 1335.46 984.794 1333.9 989.121 1330.73L1230.91 1153.67C1237.51 1148.84 1241.05 1140.85 1240.19 1132.71L1215.94 901.963C1215.08 893.822 1209.96 886.748 1202.5 883.391L929.184 760.474C924.293 758.274 918.787 757.853 913.619 759.283L592.661 848.068C586.495 849.774 581.318 853.97 578.374 859.65L461.454 1085.18Z" stroke="url(#paint31_linear_1_21)" stroke-width="4"/>
<path opacity="0.478261" d="M443.545 1064.36C438.93 1072.27 439.448 1082.17 444.865 1089.56L593.76 1292.57C597.552 1297.74 603.328 1301.09 609.697 1301.82L936.279 1339.11C941.633 1339.72 947.032 1338.43 951.534 1335.47L1198.95 1172.62C1205.77 1168.13 1209.7 1160.36 1209.27 1152.21L1197.22 922.155C1196.79 914 1192.07 906.683 1184.81 902.93L921.733 766.834C916.946 764.358 911.442 763.641 906.181 764.809L585.287 836.035C579.029 837.424 573.634 841.362 570.404 846.899L443.545 1064.36Z" stroke="url(#paint32_linear_1_21)" stroke-width="4"/>
<path opacity="0.492754" d="M426.742 1044.04C421.763 1051.68 421.763 1061.53 426.742 1069.17L563.022 1278.15C566.531 1283.53 572.13 1287.2 578.465 1288.27L898.348 1342.18C903.689 1343.08 909.176 1342.07 913.843 1339.32L1166.07 1190.78C1173.09 1186.64 1177.4 1179.11 1177.4 1170.96L1177.4 942.247C1177.4 934.101 1173.09 926.563 1166.07 922.429L913.842 773.886C909.176 771.138 903.689 770.124 898.348 771.025L578.465 824.942C572.13 826.01 566.531 829.678 563.022 835.059L426.742 1044.04Z" stroke="url(#paint33_linear_1_21)" stroke-width="4"/>
<path opacity="0.507246" d="M411.004 1024.27C405.677 1031.61 405.164 1041.4 409.694 1049.26L533.149 1263.45C536.363 1269.03 541.768 1273 548.05 1274.41L860.401 1344.35C865.713 1345.54 871.274 1344.81 876.096 1342.28L1132.33 1208.1C1139.53 1204.33 1144.2 1197.04 1144.63 1188.93L1156.51 962.181C1156.94 954.066 1153.05 946.33 1146.29 941.828L905.48 781.6C900.949 778.585 895.494 777.274 890.087 777.902L572.136 814.812C565.742 815.555 559.951 818.943 556.171 824.154L411.004 1024.27Z" stroke="url(#paint34_linear_1_21)" stroke-width="4"/>
<path opacity="0.521739" d="M372.288 1005.1C366.631 1012.13 365.612 1021.83 369.683 1029.88L480.146 1248.52C483.055 1254.28 488.248 1258.55 494.459 1260.29L798.487 1345.62C803.755 1347.1 809.378 1346.65 814.345 1344.36L1073.78 1224.55C1081.14 1221.15 1086.17 1214.13 1087.01 1206.07L1110.58 981.898C1111.42 973.838 1107.97 965.927 1101.47 961.074L872.616 789.946C868.234 786.669 862.828 785.062 857.367 785.413L542.242 805.666C535.805 806.08 529.836 809.178 525.794 814.206L372.288 1005.1Z" stroke="url(#paint35_linear_1_21)" stroke-width="4"/>
<path opacity="0.536232" d="M358.547 986.583C352.578 993.294 351.062 1002.87 354.665 1011.09L452.015 1233.41C454.608 1239.33 459.574 1243.89 465.696 1245.96L760.657 1346C765.866 1347.76 771.536 1347.61 776.637 1345.55L1038.49 1240.09C1045.98 1237.07 1051.34 1230.33 1052.61 1222.35L1087.61 1001.34C1088.88 993.359 1085.86 985.298 1079.66 980.11L863.22 798.891C859.003 795.36 853.66 793.457 848.16 793.528L536.722 797.52C530.258 797.603 524.127 800.402 519.831 805.233L358.547 986.583Z" stroke="url(#paint36_linear_1_21)" stroke-width="4"/>
<path opacity="0.550725" d="M345.732 968.771C339.47 975.145 337.467 984.57 340.595 992.94L424.755 1218.16C427.023 1224.23 431.746 1229.06 437.761 1231.47L722.96 1345.5C728.094 1347.55 733.796 1347.69 739.022 1345.88L1002.5 1254.68C1010.12 1252.04 1015.8 1245.61 1017.47 1237.72L1063.65 1020.46C1065.33 1012.58 1062.76 1004.39 1056.87 998.884L853.266 808.402C849.228 804.624 843.964 802.427 838.438 802.214L531.516 790.386C525.042 790.136 518.763 792.629 514.223 797.251L345.732 968.771Z" stroke="url(#paint37_linear_1_21)" stroke-width="4"/>
<path opacity="0.565217" d="M333.792 951.707C327.256 957.731 324.778 966.982 327.425 975.468L398.363 1202.84C400.297 1209.03 404.761 1214.13 410.653 1216.85L685.442 1344.13C690.487 1346.47 696.208 1346.9 701.545 1345.35L965.888 1268.29C973.605 1266.04 979.588 1259.93 981.668 1252.16L1038.73 1039.2C1040.81 1031.44 1038.69 1023.15 1033.13 1017.35L842.728 818.443C838.883 814.427 833.714 811.939 828.177 811.441L526.563 784.273C520.096 783.691 513.684 785.869 508.91 790.27L333.792 951.707Z" stroke="url(#paint38_linear_1_21)" stroke-width="4"/>
<path opacity="0.57971" d="M322.673 935.431C315.884 941.094 312.942 950.147 315.106 958.72L372.833 1187.47C374.425 1193.78 378.616 1199.12 384.366 1202.17L648.151 1341.92C653.092 1344.54 658.816 1345.27 664.254 1343.97L928.713 1280.9C936.509 1279.04 942.776 1273.26 945.252 1265.64L1012.87 1057.52C1015.35 1049.9 1013.68 1041.53 1008.47 1035.45L831.584 828.981C827.947 824.735 822.888 821.96 817.353 821.173L521.801 779.187C515.358 778.272 508.829 780.129 503.832 784.298L322.673 935.431Z" stroke="url(#paint39_linear_1_21)" stroke-width="4"/>
<path opacity="0.594203" d="M312.32 919.981C305.298 925.272 301.908 934.104 303.585 942.735L348.155 1172.12C349.399 1178.52 353.303 1184.09 358.895 1187.45L611.133 1338.88C615.953 1341.77 621.667 1342.8 627.194 1341.77L891.039 1292.49C898.895 1291.02 905.425 1285.59 908.289 1278.13L986.122 1075.36C988.986 1067.9 987.772 1059.49 982.916 1053.14L819.814 839.977C816.397 835.512 811.463 832.453 805.944 831.378L517.17 775.131C510.768 773.884 504.138 775.413 498.93 779.339L312.32 919.981Z" stroke="url(#paint40_linear_1_21)" stroke-width="4"/>
<path opacity="0.608696" d="M302.676 905.39C295.443 910.301 291.619 918.889 292.81 927.55L324.319 1156.82C325.209 1163.3 328.813 1169.09 334.229 1172.75L574.431 1335.03C579.117 1338.19 584.805 1339.52 590.408 1338.76L852.931 1303.04C860.825 1301.97 867.601 1296.88 870.841 1289.6L958.513 1092.69C961.754 1085.41 960.997 1076.98 956.513 1070.39L807.397 851.395C804.214 846.721 799.421 843.383 793.933 842.019L512.609 772.101C506.265 770.525 499.55 771.722 494.142 775.394L302.676 905.39Z" stroke="url(#paint41_linear_1_21)" stroke-width="4"/>
<path opacity="0.623188" d="M293.683 891.69C286.259 896.212 282.019 904.533 282.724 913.197L301.311 1141.63C301.842 1148.16 305.133 1154.15 310.358 1158.1L538.088 1330.4C542.624 1333.83 548.271 1335.46 553.939 1334.97L814.453 1312.53C822.366 1311.85 829.367 1307.13 832.973 1300.06L930.088 1109.46C933.693 1102.38 933.393 1093.95 929.293 1087.14L794.319 863.196C791.382 858.324 786.745 854.713 781.302 853.061L508.058 770.094C501.789 768.191 495.006 769.051 489.411 772.46L293.683 891.69Z" stroke="url(#paint42_linear_1_21)" stroke-width="4"/>
<path opacity="0.637681" d="M285.282 878.906C277.689 883.032 273.051 891.067 273.273 899.706L279.115 1126.57C279.284 1133.14 282.251 1139.32 287.268 1143.55L502.146 1325C506.518 1328.69 512.109 1330.62 517.828 1330.41L775.672 1320.96C783.584 1320.67 790.79 1316.33 794.748 1309.47L900.888 1125.63C904.846 1118.78 905 1110.37 901.296 1103.37L780.564 875.342C777.887 870.284 773.42 866.407 768.037 864.467L503.459 769.101C497.281 766.874 490.446 767.394 484.677 770.53L285.282 878.906Z" stroke="url(#paint43_linear_1_21)" stroke-width="4"/>
<path opacity="0.652174" d="M277.412 867.06C269.672 870.786 264.654 878.514 264.398 887.1L257.712 1111.71C257.516 1118.29 260.149 1124.64 264.943 1129.14L466.643 1318.88C470.837 1322.83 476.357 1325.05 482.114 1325.13L736.653 1328.31C744.543 1328.41 751.933 1324.46 756.23 1317.84L870.958 1141.17C875.255 1134.56 875.86 1126.2 872.561 1119.03L766.122 887.793C763.714 882.563 759.433 878.426 754.123 876.199L498.752 769.11C492.682 766.564 485.813 766.741 479.882 769.596L277.412 867.06Z" stroke="url(#paint44_linear_1_21)" stroke-width="4"/>
<path opacity="0.666667" d="M270.011 856.173C262.147 859.494 256.768 866.897 256.041 875.403L237.082 1097.07C236.52 1103.64 238.808 1110.14 243.364 1114.91L431.617 1312.06C435.618 1316.25 441.053 1318.77 446.835 1319.13L697.462 1334.59C705.31 1335.07 712.863 1331.51 717.485 1325.15L840.343 1156.05C844.965 1149.69 846.017 1141.41 843.131 1134.09L750.981 900.51C748.855 895.121 744.773 890.733 739.552 888.222L493.881 770.105C487.935 767.246 481.048 767.079 474.97 769.645L270.011 856.173Z" stroke="url(#paint45_linear_1_21)" stroke-width="4"/>
<path opacity="0.681159" d="M263.02 846.26C255.052 849.171 249.334 856.232 248.142 864.631L217.204 1082.69C216.275 1089.24 218.209 1095.87 222.513 1100.89L397.104 1304.57C400.898 1309 406.232 1311.82 412.027 1312.46L658.162 1339.8C665.951 1340.66 673.644 1337.5 678.575 1331.41L809.092 1170.24C814.023 1164.15 815.515 1155.97 813.049 1148.53L735.135 913.454C733.3 907.92 729.433 903.289 724.314 900.498L488.79 772.069C482.984 768.903 476.096 768.389 469.884 770.659L263.02 846.26Z" stroke="url(#paint46_linear_1_21)" stroke-width="4"/>
<path opacity="0.695652" d="M256.374 837.33C248.325 839.831 242.29 846.535 240.643 854.8L198.051 1068.62C196.756 1075.12 198.33 1081.87 202.368 1087.12L363.136 1296.44C366.711 1301.1 371.929 1304.21 377.723 1305.14L618.819 1343.94C626.528 1345.18 634.34 1342.42 639.565 1336.62L777.251 1183.7C782.476 1177.9 784.399 1169.84 782.36 1162.31L718.577 926.585C717.045 920.92 713.405 916.056 708.402 912.987L483.424 774.979C477.773 771.513 470.902 770.653 464.571 772.621L256.374 837.33Z" stroke="url(#paint47_linear_1_21)" stroke-width="4"/>
<path opacity="0.710145" d="M250.013 829.392C241.906 831.483 235.575 837.813 233.484 845.921L179.6 1054.89C177.94 1061.32 179.145 1068.16 182.904 1073.64L329.746 1287.72C333.088 1292.59 338.176 1295.99 343.955 1297.21L579.496 1347.02C587.107 1348.63 595.016 1346.28 600.517 1340.78L744.871 1196.42C750.372 1190.92 752.719 1183.01 751.11 1175.4L701.306 939.863C700.084 934.084 696.685 928.996 691.814 925.654L477.731 778.812C472.251 775.053 465.413 773.848 458.978 775.507L250.013 829.392Z" stroke="url(#paint48_linear_1_21)" stroke-width="4"/>
<path opacity="0.724638" d="M243.874 822.45C235.73 824.13 229.127 830.075 226.605 837.999L161.82 1041.52C159.8 1047.87 160.63 1054.78 164.098 1060.47L296.963 1278.44C300.059 1283.52 305.001 1287.2 310.753 1288.71L540.254 1349.05C547.749 1351.02 555.733 1349.09 561.493 1343.9L712.001 1208.38C717.76 1203.2 720.521 1195.46 719.344 1187.8L683.32 953.249C682.417 947.371 679.272 942.07 674.545 938.461L471.659 783.539C466.365 779.497 459.578 777.948 453.054 779.294L243.874 822.45Z" stroke="url(#paint49_linear_1_21)" stroke-width="4"/>
<path opacity="0.73913" d="M237.897 816.504C229.738 817.775 222.887 823.323 219.947 831.04L144.684 1028.56C142.306 1034.8 142.758 1041.76 145.922 1047.65L264.813 1268.63C267.651 1273.9 272.434 1277.86 278.145 1279.67L501.155 1350.06C508.517 1352.39 516.554 1350.86 522.553 1346L678.692 1219.56C684.691 1214.71 687.853 1207.16 687.111 1199.48L664.62 966.704C664.044 960.743 661.165 955.242 656.596 951.37L465.16 789.132C460.066 784.814 453.346 782.924 446.748 783.952L237.897 816.504Z" stroke="url(#paint50_linear_1_21)" stroke-width="4"/>
<path opacity="0.753623" d="M232.021 811.549C223.868 812.415 216.793 817.556 213.45 825.042L128.16 1016.03C125.431 1022.14 125.5 1029.14 128.349 1035.2L233.322 1258.34C235.889 1263.8 240.497 1268.03 246.154 1270.12L462.259 1350.06C469.47 1352.73 477.538 1351.62 483.758 1347.1L644.995 1229.95C651.215 1225.43 654.766 1218.1 654.457 1210.42L645.209 980.189C644.966 974.163 642.367 968.473 637.97 964.345L458.188 795.555C453.307 790.973 446.672 788.745 440.015 789.452L232.021 811.549Z" stroke="url(#paint51_linear_1_21)" stroke-width="4"/>
<path opacity="0.768116" d="M226.185 807.579C218.06 808.044 210.785 812.768 207.056 820.002L112.217 1003.96C109.142 1009.92 108.825 1016.93 111.351 1023.15L202.51 1247.6C204.796 1253.23 209.216 1257.73 214.805 1260.11L423.623 1349.07C430.667 1352.08 438.743 1351.37 445.164 1347.2L610.961 1239.53C617.383 1235.36 621.308 1228.27 621.431 1220.62L625.092 993.666C625.19 987.592 622.881 981.726 618.669 977.348L450.697 802.776C446.043 797.939 439.51 795.377 432.81 795.76L226.185 807.579Z" stroke="url(#paint52_linear_1_21)" stroke-width="4"/>
<path opacity="0.782609" d="M220.332 804.584C212.255 804.652 204.806 808.953 200.708 815.914L96.8212 992.367C93.4076 998.165 92.704 1005.17 94.8958 1011.53L172.399 1236.47C174.392 1242.26 178.61 1247.01 184.118 1249.68L385.302 1347.13C392.164 1350.45 400.226 1350.16 406.829 1346.35L576.642 1248.31C583.245 1244.49 587.529 1237.66 588.082 1230.05L604.278 1007.1C604.721 1000.99 602.714 994.965 598.699 990.345L442.645 810.755C438.232 805.676 431.816 802.784 425.088 802.841L220.332 804.584Z" stroke="url(#paint53_linear_1_21)" stroke-width="4"/>
<path opacity="0.797101" d="M214.403 802.548C206.395 802.227 198.797 806.098 194.349 812.766L81.9381 981.284C78.1949 986.896 77.1037 993.867 78.9534 1000.35L143.004 1224.98C144.695 1230.91 148.696 1235.91 154.11 1238.86L347.35 1344.26C354.014 1347.89 362.042 1348 368.805 1344.56L542.088 1256.26C548.851 1252.82 553.479 1246.26 554.455 1238.73L582.774 1020.45C583.568 1014.33 581.872 1008.15 578.069 1003.3L433.993 819.452C429.833 814.143 423.551 810.928 416.811 810.658L214.403 802.548Z" stroke="url(#paint54_linear_1_21)" stroke-width="4"/>
<path opacity="0.811594" d="M208.343 801.454C200.423 800.751 192.701 804.189 187.924 810.545L67.533 970.729C63.4699 976.135 61.9919 983.055 63.492 989.649L114.342 1213.17C115.72 1219.23 119.492 1224.47 124.798 1227.71L309.82 1340.48C316.271 1344.42 324.243 1344.93 331.146 1341.86L507.351 1263.41C514.253 1260.33 519.206 1254.06 520.601 1246.64L560.594 1033.68C561.74 1027.57 560.367 1021.26 556.787 1016.18L424.705 828.827C420.808 823.3 414.676 819.767 407.94 819.17L208.343 801.454Z" stroke="url(#paint55_linear_1_21)" stroke-width="4"/>
<path opacity="0.826087" d="M202.097 801.282C194.284 800.205 186.465 803.207 181.379 809.235L53.57 960.719C49.1977 965.901 47.3347 972.748 48.4788 979.431L86.4237 1201.09C87.4804 1207.26 91.0092 1212.74 96.1948 1216.25L272.759 1335.85C278.985 1340.07 286.88 1340.98 293.9 1338.28L472.48 1269.73C479.5 1267.04 484.76 1261.08 486.565 1253.78L537.748 1046.75C539.251 1040.67 538.21 1034.24 534.865 1028.95L414.745 838.835C411.123 833.103 405.157 829.261 398.44 828.335L202.097 801.282Z" stroke="url(#paint56_linear_1_21)" stroke-width="4"/>
<path opacity="0.84058" d="M195.613 802.007C187.926 800.567 180.034 803.131 174.662 808.815L40.0127 951.27C35.3431 956.21 33.0982 962.963 33.8805 969.716L59.259 1188.78C59.9857 1195.05 63.2588 1200.75 68.311 1204.54L236.214 1330.4C242.202 1334.89 249.999 1336.18 257.117 1333.87L437.525 1275.25C444.642 1272.94 450.189 1267.31 452.395 1260.16L514.253 1059.64C516.115 1053.61 515.414 1047.08 512.315 1041.58L404.083 849.43C400.746 843.507 394.961 839.363 388.279 838.111L195.613 802.007Z" stroke="url(#paint57_linear_1_21)" stroke-width="4"/>
<path opacity="0.855072" d="M188.839 803.604C181.296 801.81 173.357 803.938 167.722 809.263L26.8241 942.397C21.8701 947.078 19.2474 953.715 19.6633 960.518L32.8551 1176.29C33.2435 1182.65 36.2486 1188.56 41.1548 1192.61L200.229 1324.16C205.967 1328.91 213.647 1330.58 220.839 1328.65L402.533 1279.97C409.725 1278.04 415.54 1272.75 418.136 1265.77L490.125 1072.31C492.346 1066.35 491.993 1059.73 489.153 1054.03L392.689 860.566C389.648 854.466 384.058 850.03 377.427 848.453L188.839 803.604Z" stroke="url(#paint58_linear_1_21)" stroke-width="4"/>
<path opacity="0.869565" d="M181.728 806.042C174.346 803.907 166.386 805.599 160.511 810.552L13.9671 934.11C8.74271 938.515 5.7476 945.015 5.7935 951.849L7.21642 1163.67C7.25954 1170.09 9.9844 1176.2 14.7321 1180.52L164.845 1317.18C170.322 1322.17 177.865 1324.21 185.11 1322.67L367.554 1283.89C374.799 1282.35 380.859 1277.42 383.835 1270.64L465.382 1084.73C467.962 1078.85 467.966 1072.16 465.394 1066.28L380.54 872.194C377.802 865.932 372.422 861.213 365.858 859.313L181.728 806.042Z" stroke="url(#paint59_linear_1_21)" stroke-width="4"/>
<path opacity="0.884058" d="M174.234 809.29C167.029 806.825 159.072 808.085 152.982 812.656L1.40446 926.419C-4.07552 930.532 -7.43645 936.874 -7.76313 943.718L-17.6549 1150.94C-17.9637 1157.41 -15.5309 1163.71 -10.954 1168.3L130.099 1309.51C135.306 1314.72 142.694 1317.13 149.97 1315.98L332.632 1287.04C339.909 1285.89 346.193 1281.32 349.533 1274.76L440.044 1096.86C442.981 1091.09 443.349 1084.35 441.056 1078.29L367.612 884.265C365.186 877.857 360.03 872.864 353.547 870.645L174.234 809.29Z" stroke="url(#paint60_linear_1_21)" stroke-width="4"/>
<path opacity="0.898551" d="M166.312 813.312C159.3 810.531 151.37 811.364 145.09 815.543L-10.9016 919.331C-16.6212 923.137 -20.3402 929.3 -21.0411 936.134L-41.7599 1138.17C-42.4264 1144.67 -40.2968 1151.15 -35.9028 1155.99L96.0271 1301.19C100.954 1306.62 108.168 1309.37 115.454 1308.6L297.813 1289.43C305.099 1288.67 311.584 1284.48 315.275 1278.15L414.133 1108.69C417.425 1103.04 418.161 1096.27 416.158 1090.05L353.885 896.727C351.779 890.189 346.86 884.933 340.474 882.4L166.312 813.312Z" stroke="url(#paint61_linear_1_21)" stroke-width="4"/>
<path opacity="0.913043" d="M157.922 818.072C151.118 814.988 143.24 815.401 136.795 819.179L-22.9882 912.85C-28.9306 916.334 -32.9988 922.298 -34.0742 929.101L-65.1013 1125.4C-66.1307 1131.91 -64.3153 1138.55 -60.116 1143.64L62.6603 1292.27C67.2988 1297.89 74.3231 1300.98 81.5967 1300.6L263.139 1291.08C270.413 1290.7 277.076 1286.9 281.102 1280.83L387.669 1120.17C391.314 1114.68 392.425 1107.88 390.721 1101.51L339.345 909.531C337.564 902.877 332.895 897.372 326.621 894.528L157.922 818.072Z" stroke="url(#paint62_linear_1_21)" stroke-width="4"/>
<path opacity="0.927536" d="M149.025 823.53C142.442 820.159 134.64 820.159 128.057 823.53L-34.8923 906.979C-41.0397 910.128 -45.4469 915.872 -46.8962 922.625L-87.6844 1112.66C-89.0811 1119.17 -87.5904 1125.96 -83.5973 1131.29L30.0274 1282.81C34.371 1288.6 41.1883 1292.01 48.4282 1292.01L228.653 1292.01C235.893 1292.01 242.711 1288.6 247.054 1282.81L360.679 1131.29C364.672 1125.96 366.163 1119.17 364.766 1112.66L323.978 922.625C322.528 915.872 318.121 910.128 311.974 906.979L149.025 823.53Z" stroke="url(#paint63_linear_1_21)" stroke-width="4"/>
<path opacity="0.942029" d="M139.585 829.646C133.236 826.003 125.533 825.599 118.838 828.559L-46.6511 901.718C-52.9848 904.518 -57.7198 910.023 -59.5414 916.704L-109.518 1100.01C-111.286 1106.49 -110.13 1113.42 -106.354 1118.98L-1.84697 1272.84C2.19563 1278.79 8.79044 1282.51 15.9754 1282.89L194.394 1292.24C201.579 1292.61 208.526 1289.61 213.169 1284.11L333.186 1142.02C337.522 1136.88 339.396 1130.11 338.316 1123.48L307.774 935.955C306.66 929.12 302.527 923.15 296.52 919.703L139.585 829.646Z" stroke="url(#paint64_linear_1_21)" stroke-width="4"/>
<path opacity="0.956522" d="M129.571 836.376C123.468 832.477 115.885 831.68 109.105 834.225L-58.3003 897.065C-64.801 899.505 -69.8514 904.752 -72.0423 911.341L-130.612 1087.48C-132.753 1093.92 -131.941 1100.97 -128.394 1106.76L-32.9404 1262.43C-29.2038 1268.52 -22.8462 1272.53 -15.7371 1273.28L160.4 1291.79C167.509 1292.54 174.561 1289.94 179.483 1284.76L305.217 1152.33C309.89 1147.41 312.15 1140.68 311.395 1133.93L290.726 949.469C289.953 942.569 286.104 936.387 280.253 932.648L129.571 836.376Z" stroke="url(#paint65_linear_1_21)" stroke-width="4"/>
<path opacity="0.971014" d="M118.952 843.676C113.106 839.538 105.665 838.359 98.8256 840.489L-69.8759 893.016C-76.5234 895.085 -81.8756 900.055 -84.432 906.531L-150.979 1075.11C-153.495 1081.49 -153.037 1088.65 -149.729 1094.66L-63.235 1251.63C-59.8083 1257.85 -53.7016 1262.13 -46.6887 1263.24L126.706 1290.71C133.719 1291.82 140.851 1289.63 146.032 1284.77L276.8 1162.21C281.801 1157.53 284.451 1150.85 284.027 1144.01L272.832 963.116C272.402 956.167 268.848 949.787 263.165 945.764L118.952 843.676Z" stroke="url(#paint66_linear_1_21)" stroke-width="4"/>
<path opacity="0.985507" d="M107.702 851.501C102.122 847.14 94.8438 845.593 87.9723 847.307L-81.4127 889.564C-88.186 891.253 -93.8253 895.928 -96.7419 902.27L-170.634 1062.95C-173.527 1069.24 -173.431 1076.51 -170.373 1082.72L-92.7154 1240.49C-89.6016 1246.81 -83.7584 1251.36 -76.8618 1252.83L93.346 1289.01C100.243 1290.47 107.431 1288.69 112.848 1284.18L247.961 1171.64C253.283 1167.21 256.324 1160.61 256.24 1153.69L254.091 976.842C254.007 969.862 250.756 963.298 245.256 958.999L107.702 851.501Z" stroke="url(#paint67_linear_1_21)" stroke-width="4"/>
<path d="M95.7973 859.803C90.4919 855.237 83.3961 853.336 76.5187 854.637L-92.9451 886.701C-99.8226 888.003 -105.733 892.365 -109.004 898.553L-189.594 1051.04C-192.865 1057.23 -193.139 1064.57 -190.34 1070.98L-121.371 1229.06C-118.572 1235.48 -113.003 1240.27 -106.242 1242.08L60.3513 1286.72C67.1123 1288.53 74.3303 1287.17 79.962 1283.01L218.731 1180.59C224.363 1176.44 227.796 1169.94 228.058 1162.95L234.506 990.597C234.768 983.602 231.831 976.869 226.525 972.303L95.7973 859.803Z" stroke="url(#paint68_linear_1_21)" stroke-width="4"/>
<defs>
<linearGradient id="paint0_linear_1_21" x1="1722.91" y1="1604.24" x2="1539.03" y2="443.222" gradientUnits="userSpaceOnUse">
<stop stop-color="#FF1CF7"/>
<stop offset="1" stop-color="#00F0FF"/>
</linearGradient>
<linearGradient id="paint1_linear_1_21" x1="1671.15" y1="1603.5" x2="1549.36" y2="444.766" gradientUnits="userSpaceOnUse">
<stop stop-color="#FF1CF7"/>
<stop offset="1" stop-color="#00F0FF"/>
</linearGradient>
<linearGradient id="paint2_linear_1_21" x1="1619.74" y1="1601.17" x2="1559.31" y2="448.015" gradientUnits="userSpaceOnUse">
<stop stop-color="#FF1CF7"/>
<stop offset="1" stop-color="#00F0FF"/>
</linearGradient>
<linearGradient id="paint3_linear_1_21" x1="1568.78" y1="1597.29" x2="1568.78" y2="452.93" gradientUnits="userSpaceOnUse">
<stop stop-color="#FF1CF7"/>
<stop offset="1" stop-color="#00F0FF"/>
</linearGradient>
<linearGradient id="paint4_linear_1_21" x1="1518.34" y1="1591.9" x2="1577.69" y2="459.471" gradientUnits="userSpaceOnUse">
<stop stop-color="#FF1CF7"/>
<stop offset="1" stop-color="#00F0FF"/>
</linearGradient>
<linearGradient id="paint5_linear_1_21" x1="1444.51" y1="1585.05" x2="1561.95" y2="467.59" gradientUnits="userSpaceOnUse">
<stop stop-color="#FF1CF7"/>
<stop offset="1" stop-color="#00F0FF"/>
</linearGradient>
<linearGradient id="paint6_linear_1_21" x1="1395.34" y1="1576.77" x2="1569.49" y2="477.237" gradientUnits="userSpaceOnUse">
<stop stop-color="#FF1CF7"/>
<stop offset="1" stop-color="#00F0FF"/>
</linearGradient>
<linearGradient id="paint7_linear_1_21" x1="1346.93" y1="1567.12" x2="1576.23" y2="488.358" gradientUnits="userSpaceOnUse">
<stop stop-color="#FF1CF7"/>
<stop offset="1" stop-color="#00F0FF"/>
</linearGradient>
<linearGradient id="paint8_linear_1_21" x1="1299.33" y1="1556.15" x2="1582.08" y2="500.893" gradientUnits="userSpaceOnUse">
<stop stop-color="#FF1CF7"/>
<stop offset="1" stop-color="#00F0FF"/>
</linearGradient>
<linearGradient id="paint9_linear_1_21" x1="1228.61" y1="1543.93" x2="1563" y2="514.781" gradientUnits="userSpaceOnUse">
<stop stop-color="#FF1CF7"/>
<stop offset="1" stop-color="#00F0FF"/>
</linearGradient>
<linearGradient id="paint10_linear_1_21" x1="1182.82" y1="1530.51" x2="1566.9" y2="529.957" gradientUnits="userSpaceOnUse">
<stop stop-color="#FF1CF7"/>
<stop offset="1" stop-color="#00F0FF"/>
</linearGradient>
<linearGradient id="paint11_linear_1_21" x1="1138.04" y1="1515.95" x2="1569.73" y2="546.351" gradientUnits="userSpaceOnUse">
<stop stop-color="#FF1CF7"/>
<stop offset="1" stop-color="#00F0FF"/>
</linearGradient>
<linearGradient id="paint12_linear_1_21" x1="1094.3" y1="1500.33" x2="1571.44" y2="563.894" gradientUnits="userSpaceOnUse">
<stop stop-color="#FF1CF7"/>
<stop offset="1" stop-color="#00F0FF"/>
</linearGradient>
<linearGradient id="paint13_linear_1_21" x1="1051.66" y1="1483.71" x2="1571.96" y2="582.511" gradientUnits="userSpaceOnUse">
<stop stop-color="#FF1CF7"/>
<stop offset="1" stop-color="#00F0FF"/>
</linearGradient>
<linearGradient id="paint14_linear_1_21" x1="986.158" y1="1466.16" x2="1547.27" y2="602.127" gradientUnits="userSpaceOnUse">
<stop stop-color="#FF1CF7"/>
<stop offset="1" stop-color="#00F0FF"/>
</linearGradient>
<linearGradient id="paint15_linear_1_21" x1="945.837" y1="1447.75" x2="1545.3" y2="622.663" gradientUnits="userSpaceOnUse">
<stop stop-color="#FF1CF7"/>
<stop offset="1" stop-color="#00F0FF"/>
</linearGradient>
<linearGradient id="paint16_linear_1_21" x1="906.732" y1="1428.56" x2="1542.02" y2="644.04" gradientUnits="userSpaceOnUse">
<stop stop-color="#FF1CF7"/>
<stop offset="1" stop-color="#00F0FF"/>
</linearGradient>
<linearGradient id="paint17_linear_1_21" x1="868.873" y1="1408.66" x2="1537.41" y2="666.177" gradientUnits="userSpaceOnUse">
<stop stop-color="#FF1CF7"/>
<stop offset="1" stop-color="#00F0FF"/>
</linearGradient>
<linearGradient id="paint18_linear_1_21" x1="832.285" y1="1388.13" x2="1531.43" y2="688.992" gradientUnits="userSpaceOnUse">
<stop stop-color="#FF1CF7"/>
<stop offset="1" stop-color="#00F0FF"/>
</linearGradient>
<linearGradient id="paint19_linear_1_21" x1="796.992" y1="1367.05" x2="1524.06" y2="712.401" gradientUnits="userSpaceOnUse">
<stop stop-color="#FF1CF7"/>
<stop offset="1" stop-color="#00F0FF"/>
</linearGradient>
<linearGradient id="paint20_linear_1_21" x1="763.009" y1="1345.5" x2="1515.28" y2="736.323" gradientUnits="userSpaceOnUse">
<stop stop-color="#FF1CF7"/>
<stop offset="1" stop-color="#00F0FF"/>
</linearGradient>
<linearGradient id="paint21_linear_1_21" x1="706.348" y1="1323.54" x2="1481.07" y2="760.672" gradientUnits="userSpaceOnUse">
<stop stop-color="#FF1CF7"/>
<stop offset="1" stop-color="#00F0FF"/>
</linearGradient>
<linearGradient id="paint22_linear_1_21" x1="675.019" y1="1301.27" x2="1469.44" y2="785.365" gradientUnits="userSpaceOnUse">
<stop stop-color="#FF1CF7"/>
<stop offset="1" stop-color="#00F0FF"/>
</linearGradient>
<linearGradient id="paint23_linear_1_21" x1="645.025" y1="1278.75" x2="1456.37" y2="810.319" gradientUnits="userSpaceOnUse">
<stop stop-color="#FF1CF7"/>
<stop offset="1" stop-color="#00F0FF"/>
</linearGradient>
<linearGradient id="paint24_linear_1_21" x1="616.363" y1="1256.07" x2="1441.87" y2="835.451" gradientUnits="userSpaceOnUse">
<stop stop-color="#FF1CF7"/>
<stop offset="1" stop-color="#00F0FF"/>
</linearGradient>
<linearGradient id="paint25_linear_1_21" x1="589.03" y1="1233.29" x2="1425.94" y2="860.679" gradientUnits="userSpaceOnUse">
<stop stop-color="#FF1CF7"/>
<stop offset="1" stop-color="#00F0FF"/>
</linearGradient>
<linearGradient id="paint26_linear_1_21" x1="563.015" y1="1210.51" x2="1408.59" y2="885.921" gradientUnits="userSpaceOnUse">
<stop stop-color="#FF1CF7"/>
<stop offset="1" stop-color="#00F0FF"/>
</linearGradient>
<linearGradient id="paint27_linear_1_21" x1="538.305" y1="1187.78" x2="1389.84" y2="911.1" gradientUnits="userSpaceOnUse">
<stop stop-color="#FF1CF7"/>
<stop offset="1" stop-color="#00F0FF"/>
</linearGradient>
<linearGradient id="paint28_linear_1_21" x1="514.881" y1="1165.19" x2="1369.71" y2="936.137" gradientUnits="userSpaceOnUse">
<stop stop-color="#FF1CF7"/>
<stop offset="1" stop-color="#00F0FF"/>
</linearGradient>
<linearGradient id="paint29_linear_1_21" x1="492.722" y1="1142.8" x2="1348.22" y2="960.955" gradientUnits="userSpaceOnUse">
<stop stop-color="#FF1CF7"/>
<stop offset="1" stop-color="#00F0FF"/>
</linearGradient>
<linearGradient id="paint30_linear_1_21" x1="471.801" y1="1120.68" x2="1325.4" y2="985.481" gradientUnits="userSpaceOnUse">
<stop stop-color="#FF1CF7"/>
<stop offset="1" stop-color="#00F0FF"/>
</linearGradient>
<linearGradient id="paint31_linear_1_21" x1="452.09" y1="1098.9" x2="1301.28" y2="1009.64" gradientUnits="userSpaceOnUse">
<stop stop-color="#FF1CF7"/>
<stop offset="1" stop-color="#00F0FF"/>
</linearGradient>
<linearGradient id="paint32_linear_1_21" x1="433.556" y1="1077.52" x2="1275.89" y2="1033.37" gradientUnits="userSpaceOnUse">
<stop stop-color="#FF1CF7"/>
<stop offset="1" stop-color="#00F0FF"/>
</linearGradient>
<linearGradient id="paint33_linear_1_21" x1="416.161" y1="1056.6" x2="1249.27" y2="1056.6" gradientUnits="userSpaceOnUse">
<stop stop-color="#FF1CF7"/>
<stop offset="1" stop-color="#00F0FF"/>
</linearGradient>
<linearGradient id="paint34_linear_1_21" x1="399.867" y1="1036.21" x2="1221.48" y2="1079.27" gradientUnits="userSpaceOnUse">
<stop stop-color="#FF1CF7"/>
<stop offset="1" stop-color="#00F0FF"/>
</linearGradient>
<linearGradient id="paint35_linear_1_21" x1="360.631" y1="1016.4" x2="1168.54" y2="1101.32" gradientUnits="userSpaceOnUse">
<stop stop-color="#FF1CF7"/>
<stop offset="1" stop-color="#00F0FF"/>
</linearGradient>
<linearGradient id="paint36_linear_1_21" x1="346.408" y1="997.223" x2="1138.52" y2="1122.68" gradientUnits="userSpaceOnUse">
<stop stop-color="#FF1CF7"/>
<stop offset="1" stop-color="#00F0FF"/>
</linearGradient>
<linearGradient id="paint37_linear_1_21" x1="333.149" y1="978.727" x2="1107.46" y2="1143.31" gradientUnits="userSpaceOnUse">
<stop stop-color="#FF1CF7"/>
<stop offset="1" stop-color="#00F0FF"/>
</linearGradient>
<linearGradient id="paint38_linear_1_21" x1="320.803" y1="960.96" x2="1075.42" y2="1163.16" gradientUnits="userSpaceOnUse">
<stop stop-color="#FF1CF7"/>
<stop offset="1" stop-color="#00F0FF"/>
</linearGradient>
<linearGradient id="paint39_linear_1_21" x1="309.32" y1="943.966" x2="1042.45" y2="1182.18" gradientUnits="userSpaceOnUse">
<stop stop-color="#FF1CF7"/>
<stop offset="1" stop-color="#00F0FF"/>
</linearGradient>
<linearGradient id="paint40_linear_1_21" x1="298.643" y1="927.784" x2="1008.62" y2="1200.32" gradientUnits="userSpaceOnUse">
<stop stop-color="#FF1CF7"/>
<stop offset="1" stop-color="#00F0FF"/>
</linearGradient>
<linearGradient id="paint41_linear_1_21" x1="288.716" y1="912.451" x2="973.978" y2="1217.55" gradientUnits="userSpaceOnUse">
<stop stop-color="#FF1CF7"/>
<stop offset="1" stop-color="#00F0FF"/>
</linearGradient>
<linearGradient id="paint42_linear_1_21" x1="279.481" y1="897.999" x2="938.592" y2="1233.83" gradientUnits="userSpaceOnUse">
<stop stop-color="#FF1CF7"/>
<stop offset="1" stop-color="#00F0FF"/>
</linearGradient>
<linearGradient id="paint43_linear_1_21" x1="270.88" y1="884.457" x2="902.526" y2="1249.14" gradientUnits="userSpaceOnUse">
<stop stop-color="#FF1CF7"/>
<stop offset="1" stop-color="#00F0FF"/>
</linearGradient>
<linearGradient id="paint44_linear_1_21" x1="262.851" y1="871.85" x2="865.845" y2="1263.44" gradientUnits="userSpaceOnUse">
<stop stop-color="#FF1CF7"/>
<stop offset="1" stop-color="#00F0FF"/>
</linearGradient>
<linearGradient id="paint45_linear_1_21" x1="255.334" y1="860.199" x2="828.613" y2="1276.71" gradientUnits="userSpaceOnUse">
<stop stop-color="#FF1CF7"/>
<stop offset="1" stop-color="#00F0FF"/>
</linearGradient>
<linearGradient id="paint46_linear_1_21" x1="248.266" y1="849.522" x2="790.899" y2="1288.94" gradientUnits="userSpaceOnUse">
<stop stop-color="#FF1CF7"/>
<stop offset="1" stop-color="#00F0FF"/>
</linearGradient>
<linearGradient id="paint47_linear_1_21" x1="241.586" y1="839.832" x2="752.767" y2="1300.1" gradientUnits="userSpaceOnUse">
<stop stop-color="#FF1CF7"/>
<stop offset="1" stop-color="#00F0FF"/>
</linearGradient>
<linearGradient id="paint48_linear_1_21" x1="235.231" y1="831.139" x2="714.287" y2="1310.19" gradientUnits="userSpaceOnUse">
<stop stop-color="#FF1CF7"/>
<stop offset="1" stop-color="#00F0FF"/>
</linearGradient>
<linearGradient id="paint49_linear_1_21" x1="229.138" y1="823.448" x2="675.523" y2="1319.21" gradientUnits="userSpaceOnUse">
<stop stop-color="#FF1CF7"/>
<stop offset="1" stop-color="#00F0FF"/>
</linearGradient>
<linearGradient id="paint50_linear_1_21" x1="223.246" y1="816.763" x2="636.545" y2="1327.14" gradientUnits="userSpaceOnUse">
<stop stop-color="#FF1CF7"/>
<stop offset="1" stop-color="#00F0FF"/>
</linearGradient>
<linearGradient id="paint51_linear_1_21" x1="217.494" y1="811.081" x2="597.416" y2="1334" gradientUnits="userSpaceOnUse">
<stop stop-color="#FF1CF7"/>
<stop offset="1" stop-color="#00F0FF"/>
</linearGradient>
<linearGradient id="paint52_linear_1_21" x1="211.82" y1="806.398" x2="558.203" y2="1339.78" gradientUnits="userSpaceOnUse">
<stop stop-color="#FF1CF7"/>
<stop offset="1" stop-color="#00F0FF"/>
</linearGradient>
<linearGradient id="paint53_linear_1_21" x1="206.164" y1="802.704" x2="518.971" y2="1344.5" gradientUnits="userSpaceOnUse">
<stop stop-color="#FF1CF7"/>
<stop offset="1" stop-color="#00F0FF"/>
</linearGradient>
<linearGradient id="paint54_linear_1_21" x1="200.469" y1="799.988" x2="479.781" y2="1348.17" gradientUnits="userSpaceOnUse">
<stop stop-color="#FF1CF7"/>
<stop offset="1" stop-color="#00F0FF"/>
</linearGradient>
<linearGradient id="paint55_linear_1_21" x1="194.676" y1="798.233" x2="440.695" y2="1350.8" gradientUnits="userSpaceOnUse">
<stop stop-color="#FF1CF7"/>
<stop offset="1" stop-color="#00F0FF"/>
</linearGradient>
<linearGradient id="paint56_linear_1_21" x1="188.73" y1="797.421" x2="401.775" y2="1352.42" gradientUnits="userSpaceOnUse">
<stop stop-color="#FF1CF7"/>
<stop offset="1" stop-color="#00F0FF"/>
</linearGradient>
<linearGradient id="paint57_linear_1_21" x1="182.577" y1="797.53" x2="363.077" y2="1353.05" gradientUnits="userSpaceOnUse">
<stop stop-color="#FF1CF7"/>
<stop offset="1" stop-color="#00F0FF"/>
</linearGradient>
<linearGradient id="paint58_linear_1_21" x1="176.164" y1="798.534" x2="324.658" y2="1352.72" gradientUnits="userSpaceOnUse">
<stop stop-color="#FF1CF7"/>
<stop offset="1" stop-color="#00F0FF"/>
</linearGradient>
<linearGradient id="paint59_linear_1_21" x1="169.442" y1="800.406" x2="286.572" y2="1351.46" gradientUnits="userSpaceOnUse">
<stop stop-color="#FF1CF7"/>
<stop offset="1" stop-color="#00F0FF"/>
</linearGradient>
<linearGradient id="paint60_linear_1_21" x1="162.363" y1="803.114" x2="248.869" y2="1349.29" gradientUnits="userSpaceOnUse">
<stop stop-color="#FF1CF7"/>
<stop offset="1" stop-color="#00F0FF"/>
</linearGradient>
<linearGradient id="paint61_linear_1_21" x1="154.881" y1="806.626" x2="211.6" y2="1346.27" gradientUnits="userSpaceOnUse">
<stop stop-color="#FF1CF7"/>
<stop offset="1" stop-color="#00F0FF"/>
</linearGradient>
<linearGradient id="paint62_linear_1_21" x1="146.954" y1="810.905" x2="174.809" y2="1342.41" gradientUnits="userSpaceOnUse">
<stop stop-color="#FF1CF7"/>
<stop offset="1" stop-color="#00F0FF"/>
</linearGradient>
<linearGradient id="paint63_linear_1_21" x1="138.541" y1="815.914" x2="138.541" y2="1337.78" gradientUnits="userSpaceOnUse">
<stop stop-color="#FF1CF7"/>
<stop offset="1" stop-color="#00F0FF"/>
</linearGradient>
<linearGradient id="paint64_linear_1_21" x1="129.604" y1="821.612" x2="102.835" y2="1332.4" gradientUnits="userSpaceOnUse">
<stop stop-color="#FF1CF7"/>
<stop offset="1" stop-color="#00F0FF"/>
</linearGradient>
<linearGradient id="paint65_linear_1_21" x1="120.11" y1="827.958" x2="67.7291" y2="1326.33" gradientUnits="userSpaceOnUse">
<stop stop-color="#FF1CF7"/>
<stop offset="1" stop-color="#00F0FF"/>
</linearGradient>
<linearGradient id="paint66_linear_1_21" x1="110.025" y1="834.907" x2="33.2571" y2="1319.6" gradientUnits="userSpaceOnUse">
<stop stop-color="#FF1CF7"/>
<stop offset="1" stop-color="#00F0FF"/>
</linearGradient>
<linearGradient id="paint67_linear_1_21" x1="99.3229" y1="842.414" x2="-0.550114" y2="1312.28" gradientUnits="userSpaceOnUse">
<stop stop-color="#FF1CF7"/>
<stop offset="1" stop-color="#00F0FF"/>
</linearGradient>
<linearGradient id="paint68_linear_1_21" x1="87.9763" y1="850.434" x2="-33.6654" y2="1304.41" gradientUnits="userSpaceOnUse">
<stop stop-color="#FF1CF7"/>
<stop offset="1" stop-color="#00F0FF"/>
</linearGradient>
</defs>
</svg>
