<svg width="557" height="78" viewBox="0 0 557 78" fill="none" xmlns="http://www.w3.org/2000/svg">
<path d="M8.48219 58H0.322188V4.4H17.3622C31.7622 4.4 41.1222 10.88 41.1222 23.36C41.1222 36.16 31.6022 42.56 17.7622 42.56H8.48219V58ZM17.6022 11.92H8.48219V34.96H17.6022C26.4022 34.96 32.7222 31.52 32.7222 23.36C32.7222 15.52 26.6422 11.92 17.6022 11.92ZM64.5284 0.799997H72.4484V58H64.5284V0.799997ZM116.15 58.96C104.79 58.96 96.4703 49.68 96.4703 38.32C96.4703 27.12 105.43 17.84 117.35 17.84C129.19 17.84 138.23 26.64 138.23 38.32V58H130.71V51.12C127.75 55.92 122.55 58.96 116.15 58.96ZM117.35 51.44C124.71 51.44 130.31 45.52 130.31 38.4C130.31 31.2 124.71 25.28 117.35 25.28C110.07 25.28 104.39 31.2 104.39 38.4C104.39 45.52 110.07 51.44 117.35 51.44ZM181.095 77.04C172.775 77.04 165.895 73.52 162.375 66.56L168.935 62.96C171.175 67.2 175.575 69.68 180.935 69.68C189.255 69.68 193.575 63.44 193.575 54.96V51.52C191.255 55.92 187.095 58.56 181.175 58.56C169.175 58.56 163.335 50.64 163.335 39.12V18.8H171.175V38.72C171.175 46.08 175.015 51.12 182.135 51.12C189.015 51.12 193.495 45.36 193.495 38.16V18.8H201.495V54.88C201.495 68 193.815 77.04 181.095 77.04ZM284.615 59.04C279.335 59.04 275.815 56.08 273.975 50.24L259.895 4.4H268.215L281.495 48.16C282.055 50.08 283.015 51.04 284.615 51.04C286.215 51.04 287.175 50.08 287.735 48.16L300.855 4.4H309.255L295.175 50.24C293.335 56.08 289.735 59.04 284.615 59.04ZM335.902 11.04C333.022 11.04 330.702 8.72 330.702 5.84C330.702 2.96 333.022 0.559996 335.902 0.559996C338.782 0.559996 341.022 2.96 341.022 5.84C341.022 8.72 338.782 11.04 335.902 11.04ZM331.982 18.8H339.902V58H331.982V18.8ZM380.483 58.88C373.203 58.88 367.603 56 364.563 50.16L370.643 46.8C372.643 50.72 375.843 52.16 380.163 52.16C384.643 52.16 388.083 50.32 388.083 46.88C388.083 38.64 365.603 44.88 365.603 29.92C365.603 23.04 371.683 18 380.243 18C387.523 18 392.483 21.36 394.963 25.92L388.883 29.36C387.203 25.92 384.003 24.72 380.403 24.72C376.723 24.72 373.523 26.64 373.523 29.76C373.523 37.76 396.003 31.92 396.003 46.72C396.003 54.16 388.803 58.88 380.483 58.88ZM424.664 11.04C421.784 11.04 419.464 8.72 419.464 5.84C419.464 2.96 421.784 0.559996 424.664 0.559996C427.544 0.559996 429.784 2.96 429.784 5.84C429.784 8.72 427.544 11.04 424.664 11.04ZM420.744 18.8H428.664V58H420.744V18.8ZM473.646 58.96C461.806 58.96 452.686 49.68 452.686 38.32C452.686 27.04 461.886 17.84 473.646 17.84C485.486 17.84 494.446 27.12 494.446 38.32C494.446 49.68 485.406 58.96 473.646 58.96ZM473.646 51.44C480.926 51.44 486.526 45.52 486.526 38.4C486.526 31.2 480.926 25.28 473.646 25.28C466.286 25.28 460.606 31.2 460.606 38.4C460.606 45.52 466.286 51.44 473.646 51.44ZM536.331 25.44C528.651 25.44 524.811 31.76 524.811 39.04V58H516.891V38.24C516.891 26.8 523.691 17.84 536.331 17.84C549.131 17.84 556.091 26.8 556.091 38.16V58H548.171V39.12C548.171 31.76 544.171 25.44 536.331 25.44Z" fill="url(#paint0_linear_1_94)"/>
<defs>
<linearGradient id="paint0_linear_1_94" x1="0.623322" y1="-6.85713" x2="568.878" y2="47.3495" gradientUnits="userSpaceOnUse">
<stop stop-color="#FF1CF7"/>
<stop offset="1" stop-color="#00F0FF"/>
</linearGradient>
</defs>
</svg>
